#!OML:ASF F:\VICON\USERDATA\INSTALL\rory3\rory3.ASF
:FULLY-SPECIFIED
:DEGREES
1721
root 1.19311 17.9316 0.395195 3.93216 13.8164 -2.35736
lowerback 9.17982 2.47037 1.98071
upperback -0.125831 3.43242 -1.32539
thorax -5.07898 1.62825 -2.95073
lowerneck -26.6917 -12.7958 -10.7006
upperneck 2.85486 -15.4057 16.317
head 7.23843 -6.22081 4.80694
rclavicle -3.0911e-014 7.95139e-015
rhumerus 49.0079 -39.2777 -29.6771
rradius 39.0456
rwrist 29.0504
rhand -59.925 -6.71161
rfingers 7.12502
rthumb -32.0805 -33.9014
lclavicle -3.0911e-014 7.95139e-015
lhumerus -38.6989 1.52108 67.6337
lradius 55.7509
lwrist -4.34366
lhand -17.7118 25.607
lfingers 7.12502
lthumb 8.54843 55.4139
rfemur -11.3107 -5.94905 16.0792
rtibia 24.7826
rfoot -18.8276 -15.2653
rtoes 5.11247
lfemur -12.7507 -3.82465 -10.5956
ltibia 20.9979
lfoot -10.7308 -1.67443
ltoes -23.6896
1722
root 1.15558 17.9298 0.398686 4.04332 13.8387 -2.18009
lowerback 9.17666 2.47067 1.96507
upperback -0.0795765 3.42875 -1.36813
thorax -5.02723 1.6279 -2.98417
lowerneck -26.8163 -12.7872 -10.5407
upperneck 2.76689 -15.402 16.202
head 7.20182 -6.22262 4.74417
rclavicle -6.08281e-014 2.38542e-015
rhumerus 50.3562 -41.2957 -32.3302
rradius 38.4398
rwrist 27.9781
rhand -59.5752 -7.37505
rfingers 7.12502
rthumb -31.7474 -34.6313
lclavicle -6.08281e-014 2.38542e-015
lhumerus -38.3579 1.57622 67.5199
lradius 55.7116
lwrist -4.44221
lhand -18.1587 24.6756
lfingers 7.12502
lthumb 8.11722 54.4997
rfemur -11.5234 -6.15895 16.0209
rtibia 24.9904
rfoot -18.7906 -15.0683
rtoes 4.9878
lfemur -12.6993 -4.12725 -10.6252
ltibia 20.7375
lfoot -10.5334 -1.44775
ltoes -23.5764
1723
root 1.11644 17.9328 0.402335 4.0919 13.8533 -2.1824
lowerback 9.21058 2.47479 2.12724
upperback -0.0228073 3.45277 -1.35192
thorax -4.97682 1.63757 -3.061
lowerneck -26.7361 -12.8241 -10.5465
upperneck 2.88268 -15.4751 16.1888
head 7.23669 -6.25943 4.7274
rclavicle 4.60683e-014 -2.22639e-014
rhumerus 51.9675 -43.1906 -35.2483
rradius 37.8522
rwrist 26.775
rhand -59.8382 -8.21582
rfingers 7.12502
rthumb -31.9978 -35.4222
lclavicle 4.60683e-014 -2.22639e-014
lhumerus -38.0419 1.56842 67.4568
lradius 55.7797
lwrist -4.45192
lhand -19.0119 21.5754
lfingers 7.12502
lthumb 7.29368 51.4297
rfemur -11.6936 -6.25941 16.1732
rtibia 25.1975
rfoot -18.8628 -14.9273
rtoes 4.55168
lfemur -12.641 -4.28181 -10.4644
ltibia 20.5095
lfoot -10.4336 -1.32127
ltoes -23.5307
1724
root 1.07355 17.9339 0.408141 4.10222 13.7978 -2.23119
lowerback 9.32375 2.48785 2.251
upperback -0.0318575 3.48723 -1.31682
thorax -5.04254 1.6503 -3.10493
lowerneck -26.5473 -12.8414 -10.554
upperneck 3.05173 -15.5403 16.1712
head 7.27232 -6.29699 4.71308
rclavicle 5.01434e-014 1.19271e-015
rhumerus 53.6823 -44.8235 -38.3485
rradius 37.3716
rwrist 25.7511
rhand -60.1091 -8.68511
rfingers 7.12502
rthumb -32.2557 -35.8394
lclavicle 5.01434e-014 1.19271e-015
lhumerus -37.9028 1.51513 67.3427
lradius 55.9288
lwrist -4.38747
lhand -18.7012 23.8784
lfingers 7.12502
lthumb 7.5936 53.7221
rfemur -11.8551 -6.14139 16.3921
rtibia 25.4327
rfoot -19.0654 -14.8685
rtoes 4.63047
lfemur -12.5403 -4.36338 -10.2398
ltibia 20.2854
lfoot -10.3242 -1.21185
ltoes -23.4016
1725
root 1.02922 17.9325 0.412012 4.08705 13.8013 -2.15663
lowerback 9.52853 2.46648 2.22534
upperback -0.0631261 3.46155 -1.28212
thorax -5.19582 1.63476 -3.06393
lowerneck -26.329 -12.8475 -10.467
upperneck 3.08028 -15.5735 15.9658
head 7.22398 -6.34013 4.63239
rclavicle 3.22528e-014 -9.14409e-015
rhumerus 55.4946 -46.2264 -41.6234
rradius 37.1149
rwrist 25.1885
rhand -60.0636 -9.17869
rfingers 7.12502
rthumb -32.2124 -36.3418
lclavicle 3.22528e-014 -9.14409e-015
lhumerus -37.8463 1.53709 67.1831
lradius 56.0388
lwrist -4.36082
lhand -18.8132 21.3079
lfingers 7.12502
lthumb 7.48542 51.1555
rfemur -11.9646 -6.11996 16.4676
rtibia 25.6725
rfoot -19.1887 -14.7591
rtoes 5.01069
lfemur -12.4255 -4.51364 -10.1536
ltibia 20.0963
lfoot -10.1797 -1.08874
ltoes -23.6102
1726
root 0.985562 17.9293 0.414304 4.06661 13.856 -2.09464
lowerback 9.66367 2.42904 2.22367
upperback -0.0386303 3.41706 -1.22049
thorax -5.25287 1.61246 -2.99951
lowerneck -26.1443 -12.863 -10.4635
upperneck 3.06429 -15.5901 15.8135
head 7.17582 -6.3719 4.58453
rclavicle -6.53008e-014 9.93923e-015
rhumerus 57.1107 -47.4526 -44.6629
rradius 37.1087
rwrist 24.5071
rhand -59.972 -9.58511
rfingers 7.12502
rthumb -32.1252 -36.7659
lclavicle -6.53008e-014 9.93923e-015
lhumerus -37.7706 1.63275 67.0952
lradius 56.2256
lwrist -4.45165
lhand -18.2461 24.5376
lfingers 7.12502
lthumb 8.03279 54.3649
rfemur -12.0805 -6.31911 16.5485
rtibia 25.92
rfoot -19.2127 -14.5473
rtoes 5.45314
lfemur -12.3484 -4.74171 -10.0577
ltibia 19.9395
lfoot -10.078 -0.878241
ltoes -23.8684
1727
root 0.940696 17.9276 0.41871 4.08587 13.8882 -2.03123
lowerback 9.71536 2.40578 2.20909
upperback 0.0173937 3.3884 -1.15729
thorax -5.2296 1.60048 -2.92234
lowerneck -26.3034 -12.893 -10.7249
upperneck 3.38187 -15.6004 15.9643
head 7.34173 -6.34955 4.66202
rclavicle -1.56543e-014 -1.74931e-014
rhumerus 58.2676 -48.4803 -47.1092
rradius 37.219
rwrist 23.1881
rhand -60.1744 -9.75679
rfingers 7.12502
rthumb -32.3179 -36.8985
lclavicle -1.56543e-014 -1.74931e-014
lhumerus -37.673 1.66969 67.0857
lradius 56.4636
lwrist -4.36968
lhand -18.1828 25.546
lfingers 7.12502
lthumb 8.09387 55.371
rfemur -12.246 -6.51313 16.6567
rtibia 26.1863
rfoot -19.211 -14.4341
rtoes 5.10152
lfemur -12.3148 -4.88144 -9.95749
ltibia 19.8052
lfoot -10.0051 -0.758275
ltoes -24.0414
